<?xml version="1.0" encoding="UTF-8"?> <!-- Generator: Adobe Illustrator 24.2.2, SVG Export Plug-In . SVG Version: 6.00 Build 0) --> <svg xmlns="http://www.w3.org/2000/svg" xmlns:xlink="http://www.w3.org/1999/xlink" version="1.1" id="Layer_1" x="0px" y="0px" viewBox="0 0 117 45" style="enable-background:new 0 0 117 45;" xml:space="preserve"> <style type="text/css"> .st0{fill:#00A0FF;} </style> <g> <path d="M12.52,0.27c3.21,0,8.44,1.38,8.44,4.78v1.86h-2.12V5.66c0-2.12-3.66-3.27-6.26-3.27c-5.01,0-8.86,3.91-8.86,9.37 c0,5.39,3.82,9.72,8.95,9.72c4.65,0,7.38-3.18,7.38-3.18l1.28,1.64c0,0-3.11,3.66-8.7,3.66c-6.61,0-11.26-5.26-11.26-11.84 C1.39,5.24,6.17,0.27,12.52,0.27z"></path> <path d="M33.61,13.27h0.9v-0.19c0-3.37-1.22-4.56-4.17-4.56c-0.8,0-3.14,0.22-3.14,1.41v1.03h-2.09V9.42 c0-2.25,3.85-2.73,5.26-2.73c5.1,0,6.32,2.73,6.32,6.19v7.73c0,0.48,0.26,0.71,0.71,0.71h1.35v1.89h-2.21 c-1.38,0-1.93-0.61-1.93-1.93c0-0.71,0.03-1.19,0.03-1.19h-0.06c0.03,0-1.32,3.5-5.36,3.5c-2.7,0-5.49-1.57-5.49-4.78 C23.73,13.46,30.82,13.27,33.61,13.27z M29.57,21.74c3.08,0,4.94-3.21,4.94-6V15h-0.93c-2.54,0-7.61,0.06-7.61,3.69 C25.97,20.2,27.16,21.74,29.57,21.74z"></path> <path d="M42.18,3.25c0-0.45-0.26-0.71-0.71-0.71h-1.35V0.66h2.28c1.38,0,1.96,0.58,1.96,1.96v18c0,0.48,0.26,0.71,0.71,0.71h1.35 v1.89h-2.28c-1.38,0-1.96-0.58-1.96-1.96V3.25z"></path> </g> <g> <path class="st0" d="M50.97,28c1.41,0,2.37-1.16,2.98-2.63l0.96-2.21L49.24,9.7c-0.26-0.58-0.54-0.74-1.12-0.74h-0.32V7.07h1 c1.44,0,1.89,0.32,2.47,1.77l4.14,10.08c0.32,0.8,0.58,1.73,0.58,1.73h0.06c0,0,0.22-0.93,0.55-1.73l3.98-10.08 c0.54-1.44,1.03-1.77,2.5-1.77h0.99v1.89h-0.32c-0.58,0-0.9,0.16-1.12,0.74l-6.96,16.88c-0.83,2.05-2.47,3.37-4.62,3.37 c-2.25,0-3.5-1.57-3.5-1.57l1.03-1.6C48.57,26.81,49.59,28,50.97,28z"></path> </g> <g> <path d="M67.37,9.67c0-0.45-0.26-0.71-0.71-0.71h-1.35V7.07h2.21c1.38,0,1.92,0.58,1.92,1.7c0,0.64-0.03,1.09-0.03,1.09h0.06 c0,0,1.28-3.18,5.55-3.18c4.33,0,7.03,3.47,7.03,8.47c0,5.1-3.05,8.44-7.22,8.44c-3.95,0-5.29-3.05-5.29-3.05h-0.06 c0,0,0.06,0.58,0.06,1.41v7.67h-2.18V9.67z M74.62,21.67c2.86,0,5.2-2.41,5.2-6.51c0-3.95-2.09-6.48-5.1-6.48 c-2.7,0-5.23,1.93-5.23,6.51C69.49,18.43,71.25,21.67,74.62,21.67z"></path> <path d="M85.6,19.27c0,0,1.8,2.44,4.97,2.44c1.8,0,3.4-0.87,3.4-2.57c0-3.53-9.05-2.89-9.05-8.09c0-2.92,2.5-4.36,5.74-4.36 c1.64,0,4.91,0.64,4.91,2.92v1.38h-2.05v-0.77c0-1.19-1.73-1.64-2.79-1.64c-2.25,0-3.59,0.77-3.59,2.34c0,3.63,9.05,2.79,9.05,8.15 c0,2.7-2.44,4.52-5.65,4.52c-4.2,0-6.19-2.82-6.19-2.82L85.6,19.27z"></path> <path d="M107.33,6.69c4.72,0,8.54,3.59,8.54,8.38c0,4.88-3.82,8.54-8.5,8.54c-4.72,0-8.54-3.66-8.54-8.54 C98.82,10.28,102.64,6.69,107.33,6.69z M107.36,21.64c3.43,0,6.26-2.82,6.26-6.58c0-3.66-2.82-6.39-6.26-6.39 c-3.47,0-6.29,2.73-6.29,6.39C101.07,18.82,103.89,21.64,107.36,21.64z"></path> </g> <g> <path d="M0.67,43.52h0.51c0.17,0,0.26-0.08,0.26-0.26v-7.3h0.75l4.23,5.91c0.28,0.41,0.67,1.09,0.67,1.09h0.02 c0,0-0.06-0.65-0.06-1.09v-5.19c0-0.51,0.21-0.72,0.72-0.72h0.87v0.73H8.14c-0.17,0-0.26,0.08-0.26,0.26v7.3H7.13l-4.23-5.91 c-0.29-0.4-0.68-1.07-0.68-1.07H2.19c0,0,0.07,0.64,0.07,1.07v5.19c0,0.51-0.21,0.72-0.72,0.72H0.67V43.52z"></path> <path d="M12.49,38.18c1.64,0,2.49,1.26,2.49,2.74c0,0.14-0.02,0.4-0.02,0.4H10.4c0.02,1.5,1.07,2.36,2.3,2.36 c1.08,0,1.78-0.73,1.78-0.73l0.39,0.6c0,0-0.86,0.85-2.21,0.85c-1.76,0-3.1-1.27-3.1-3.1C9.56,39.35,10.9,38.18,12.49,38.18z M14.15,40.68c-0.05-1.23-0.8-1.83-1.67-1.83c-0.98,0-1.84,0.64-2.04,1.83H14.15z"></path> <path d="M16.65,39h-0.78v-0.67h0.79v-1.64h0.79v1.64h1.49V39h-1.49v3.02c0,1.39,0.88,1.57,1.33,1.57c0.17,0,0.27-0.02,0.27-0.02 v0.72c0,0-0.14,0.02-0.34,0.02c-0.68,0-2.06-0.22-2.06-2.21V39z"></path> <path d="M20.09,39.29c-0.07-0.21-0.2-0.27-0.41-0.27h-0.15v-0.7h0.41c0.57,0,0.75,0.11,0.93,0.66l1.21,3.76 c0.09,0.28,0.18,0.64,0.18,0.64h0.02c0,0,0.09-0.35,0.19-0.64l1.45-4.4h0.8l1.45,4.4c0.09,0.28,0.19,0.64,0.19,0.64h0.02 c0,0,0.07-0.34,0.17-0.64l1.23-3.76c0.18-0.55,0.37-0.66,0.93-0.66h0.41v0.7h-0.17c-0.2,0-0.34,0.06-0.41,0.27l-1.7,4.97h-0.88 l-1.45-4.22c-0.09-0.29-0.18-0.64-0.18-0.64h-0.02c0,0-0.08,0.34-0.19,0.64l-1.44,4.22h-0.9L20.09,39.29z"></path> <path d="M32.72,38.18c1.73,0,3.14,1.32,3.14,3.08c0,1.79-1.4,3.14-3.13,3.14c-1.73,0-3.14-1.34-3.14-3.14 C29.6,39.5,31,38.18,32.72,38.18z M32.74,43.68c1.26,0,2.3-1.04,2.3-2.42c0-1.34-1.04-2.35-2.3-2.35c-1.27,0-2.31,1-2.31,2.35 C30.42,42.64,31.46,43.68,32.74,43.68z"></path> <path d="M37.36,39.28c0-0.17-0.09-0.26-0.26-0.26h-0.5v-0.7h0.83c0.5,0,0.72,0.2,0.72,0.67v0.4c0,0.25-0.02,0.45-0.02,0.45h0.02 c0.28-0.9,0.94-1.58,1.88-1.58c0.17,0,0.32,0.04,0.32,0.04v0.79c0,0-0.14-0.02-0.29-0.02c-0.84,0-1.46,0.66-1.72,1.53 c-0.12,0.38-0.17,0.78-0.17,1.16v2.5h-0.8V39.28z"></path> <path d="M41.47,36.92c0-0.17-0.09-0.26-0.26-0.26h-0.5v-0.7h0.84c0.51,0,0.72,0.18,0.72,0.68v3.94h0.61c0.22,0,0.51-0.07,0.67-0.28 l1.52-1.98h0.98l-1.71,2.17c-0.29,0.37-0.45,0.42-0.45,0.42v0.02c0,0,0.18,0.08,0.37,0.44l1.07,1.92c0.11,0.2,0.22,0.26,0.54,0.26 h0.32v0.7h-0.55c-0.59,0-0.75-0.09-1.03-0.59l-1.18-2.12c-0.13-0.24-0.41-0.26-0.63-0.26h-0.54v2.97h-0.8V36.92z"></path> <path d="M47.16,42.81c0,0,0.66,0.9,1.83,0.9c0.66,0,1.25-0.32,1.25-0.94c0-1.3-3.33-1.06-3.33-2.97c0-1.07,0.92-1.6,2.11-1.6 c0.6,0,1.8,0.24,1.8,1.07v0.51h-0.75v-0.28c0-0.44-0.64-0.6-1.03-0.6c-0.83,0-1.32,0.28-1.32,0.86c0,1.33,3.33,1.03,3.33,3 c0,0.99-0.9,1.66-2.08,1.66c-1.54,0-2.28-1.04-2.28-1.04L47.16,42.81z"></path> <path d="M54.9,43.52h0.15c0.21,0,0.34-0.04,0.42-0.26l2.71-7.3h0.88l2.71,7.3c0.08,0.22,0.2,0.26,0.42,0.26h0.14v0.73h-0.38 c-0.59,0-0.77-0.12-0.98-0.68l-0.72-1.96h-3.29l-0.73,1.96c-0.21,0.57-0.38,0.68-0.97,0.68H54.9V43.52z M60.05,40.89l-1.1-2.96 c-0.14-0.39-0.32-1.07-0.32-1.07h-0.02c0,0-0.18,0.68-0.32,1.07l-1.08,2.96H60.05z"></path> <path d="M63.31,42.81c0,0,0.66,0.9,1.83,0.9c0.66,0,1.25-0.32,1.25-0.94c0-1.3-3.33-1.06-3.33-2.97c0-1.07,0.92-1.6,2.11-1.6 c0.6,0,1.8,0.24,1.8,1.07v0.51h-0.75v-0.28c0-0.44-0.64-0.6-1.03-0.6c-0.83,0-1.32,0.28-1.32,0.86c0,1.33,3.33,1.03,3.33,3 c0,0.99-0.9,1.66-2.08,1.66c-1.55,0-2.28-1.04-2.28-1.04L63.31,42.81z"></path> <path d="M68.5,42.81c0,0,0.66,0.9,1.83,0.9c0.66,0,1.25-0.32,1.25-0.94c0-1.3-3.33-1.06-3.33-2.97c0-1.07,0.92-1.6,2.11-1.6 c0.6,0,1.8,0.24,1.8,1.07v0.51h-0.75v-0.28c0-0.44-0.64-0.6-1.03-0.6c-0.83,0-1.32,0.28-1.32,0.86c0,1.33,3.33,1.03,3.33,3 c0,0.99-0.9,1.66-2.08,1.66c-1.54,0-2.28-1.04-2.28-1.04L68.5,42.81z"></path> <path d="M76.49,38.18c1.73,0,3.14,1.32,3.14,3.08c0,1.79-1.4,3.14-3.13,3.14c-1.73,0-3.14-1.34-3.14-3.14 C73.36,39.5,74.77,38.18,76.49,38.18z M76.5,43.68c1.26,0,2.3-1.04,2.3-2.42c0-1.34-1.04-2.35-2.3-2.35c-1.27,0-2.31,1-2.31,2.35 C74.19,42.64,75.23,43.68,76.5,43.68z"></path> <path d="M83.7,38.18c0.67,0,2.11,0.28,2.11,1.26v0.53h-0.75v-0.34c0-0.5-0.86-0.73-1.36-0.73c-1.27,0-2.3,0.96-2.3,2.39 c0,1.46,1.07,2.37,2.32,2.37c1.21,0,1.91-0.84,1.91-0.84l0.38,0.6c0,0-0.8,0.97-2.32,0.97c-1.77,0-3.11-1.26-3.11-3.1 C80.57,39.48,81.93,38.18,83.7,38.18z"></path> <path d="M87.42,39.28c0-0.17-0.09-0.26-0.26-0.26h-0.5v-0.7h0.84c0.51,0,0.72,0.21,0.72,0.72v4.26c0,0.18,0.09,0.26,0.26,0.26h0.5 v0.7h-0.84c-0.51,0-0.72-0.21-0.72-0.72V39.28z M87.39,35.96h0.78v1.01h-0.78V35.96z"></path> <path d="M93.4,40.6h0.33v-0.07c0-1.24-0.45-1.68-1.53-1.68c-0.29,0-1.16,0.08-1.16,0.52v0.38h-0.77v-0.57c0-0.83,1.42-1,1.93-1 c1.88,0,2.32,1,2.32,2.28v2.84c0,0.18,0.09,0.26,0.26,0.26h0.5v0.7h-0.81c-0.51,0-0.71-0.22-0.71-0.71c0-0.26,0.01-0.44,0.01-0.44 h-0.02c0.01,0-0.48,1.29-1.97,1.29c-0.99,0-2.02-0.58-2.02-1.76C89.77,40.67,92.37,40.6,93.4,40.6z M91.91,43.71 c1.13,0,1.82-1.18,1.82-2.21v-0.27h-0.34c-0.93,0-2.8,0.02-2.8,1.36C90.59,43.15,91.03,43.71,91.91,43.71z"></path> <path d="M96.63,39h-0.78v-0.67h0.79v-1.64h0.79v1.64h1.49V39h-1.49v3.02c0,1.39,0.88,1.57,1.33,1.57c0.17,0,0.27-0.02,0.27-0.02 v0.72c0,0-0.14,0.02-0.34,0.02c-0.68,0-2.06-0.22-2.06-2.21V39z"></path> <path d="M100.57,39.28c0-0.17-0.09-0.26-0.26-0.26h-0.5v-0.7h0.84c0.51,0,0.72,0.21,0.72,0.72v4.26c0,0.18,0.09,0.26,0.26,0.26h0.5 v0.7h-0.84c-0.51,0-0.72-0.21-0.72-0.72V39.28z M100.55,35.96h0.78v1.01h-0.78V35.96z"></path> <path d="M106.05,38.18c1.73,0,3.14,1.32,3.14,3.08c0,1.79-1.4,3.14-3.13,3.14c-1.73,0-3.14-1.34-3.14-3.14 C102.92,39.5,104.33,38.18,106.05,38.18z M106.06,43.68c1.26,0,2.3-1.04,2.3-2.42c0-1.34-1.04-2.35-2.3-2.35 c-1.27,0-2.31,1-2.31,2.35C103.75,42.64,104.79,43.68,106.06,43.68z"></path> <path d="M110.69,39.28c0-0.17-0.09-0.26-0.26-0.26h-0.5v-0.7h0.83c0.5,0,0.72,0.21,0.72,0.66v0.27c0,0.24-0.02,0.42-0.02,0.42h0.02 c0.21-0.54,0.97-1.5,2.36-1.5c1.47,0,1.99,0.84,1.99,2.3v2.82c0,0.18,0.09,0.26,0.26,0.26h0.5v0.7h-0.84 c-0.51,0-0.72-0.21-0.72-0.72v-2.84c0-0.93-0.14-1.76-1.29-1.76c-1.01,0-1.89,0.7-2.16,1.67c-0.07,0.25-0.09,0.52-0.09,0.8v2.84 h-0.8V39.28z"></path> </g> </svg> 