<?xml version="1.0" encoding="UTF-8" standalone="no"?><svg xmlns="http://www.w3.org/2000/svg" xmlns:xlink="http://www.w3.org/1999/xlink" contentScriptType="application/ecmascript" contentStyleType="text/css" height="1220px" preserveAspectRatio="none" style="width:8880px;height:1220px;background:#FFFFFF;" version="1.1" viewBox="0 0 8880 1220" width="8880px" zoomAndPan="magnify"><defs/><g><text fill="#000000" font-family="sans-serif" font-size="45" lengthAdjust="spacing" textLength="1682.5" x="3582.5" y="46.7139">Calypsonet - Exceptions of calypsonet-terminal-calypso-java-api - 1.0.+ (10/06/2021)</text><!--MD5=[7442f3b126ee602ae02566c1a49e158a]
cluster api--><polygon fill="#F8F9F9" points="40,71.6016,610,71.6016,627.5,130.625,8837.5,130.625,8837.5,1204.1016,40,1204.1016,40,71.6016" style="stroke:#000000;stroke-width:3.75;"/><line style="stroke:#000000;stroke-width:3.75;" x1="40" x2="627.5" y1="130.625" y2="130.625"/><text fill="#000000" font-family="sans-serif" font-size="35" font-weight="bold" lengthAdjust="spacing" textLength="555" x="50" y="112.9346">org.calypsonet.terminal.calypso</text><!--MD5=[f9c58d90839a0c7c212d8c6553ac9eb7]
cluster transaction--><polygon fill="#F2F3F4" points="100,181.6016,312.5,181.6016,330,240.625,8777.5,240.625,8777.5,1144.1016,100,1144.1016,100,181.6016" style="stroke:#000000;stroke-width:3.75;"/><line style="stroke:#000000;stroke-width:3.75;" x1="100" x2="330" y1="240.625" y2="240.625"/><text fill="#000000" font-family="sans-serif" font-size="35" font-weight="bold" lengthAdjust="spacing" textLength="197.5" x="110" y="222.9346">transaction</text><!--MD5=[8b4318461d09024d11cce135f516fa8d]
class CardTransactionException--><rect codeLine="51" fill="#FEFECE" height="209.6484" id="CardTransactionException" style="stroke:#D4AC0D;stroke-width:3.75;" width="825" x="4110" y="271.6016"/><ellipse cx="4316.875" cy="321.8359" fill="#A9DCDF" rx="27.5" ry="27.5" style="stroke:#A9DCDF;stroke-width:2.5;"/><path d="M4321.25,325.5859 L4313.0078,325.5859 L4311.9141,328.0859 L4311.9141,328.0859 L4313.0859,328.0859 L4314.375,329.6484 L4314.375,330.5859 L4314.375,331.5234 L4313.0859,333.0859 L4311.9141,333.0859 L4307.1875,333.0859 L4305.6641,333.0859 L4304.375,331.5234 L4304.375,330.5859 L4304.375,329.6484 L4305.6641,328.0859 L4307.1875,328.0859 L4312.9688,313.0859 L4310.7813,313.0859 L4308.1641,313.0859 L4306.875,311.5234 L4306.875,310.5859 L4306.875,309.6484 L4308.1641,308.0859 L4310.7813,308.0859 L4319.9609,308.0859 L4326.6797,328.0859 L4328.0859,328.0859 L4328.0859,328.0859 L4329.375,329.6484 L4329.375,330.5859 L4329.375,331.5234 L4328.0859,333.0859 L4326.6797,333.0859 L4321.9531,333.0859 L4320.6641,333.0859 L4319.375,331.5234 L4319.375,330.5859 L4319.375,329.6484 L4320.6641,328.0859 L4321.9531,328.0859 L4321.9531,328.0859 L4321.25,325.5859 Z M4319.8828,320.5859 L4316.875,311.6406 L4314.2969,320.5859 L4319.8828,320.5859 Z " fill="#000000"/><ellipse cx="4380.625" cy="320.5859" fill="#84BE84" rx="7.5" ry="7.5" style="stroke:#038048;stroke-width:2.5;"/><text fill="#000000" font-family="sans-serif" font-size="30" font-style="italic" lengthAdjust="spacing" textLength="322.5" x="4415.625" y="315.2441">&lt;&lt;RuntimeException&gt;&gt;</text><text fill="#000000" font-family="sans-serif" font-size="30" font-style="italic" lengthAdjust="spacing" textLength="362.5" x="4395.625" y="352.9785">CardTransactionException</text><line style="stroke:#D4AC0D;stroke-width:3.75;" x1="4112.5" x2="4932.5" y1="372.0703" y2="372.0703"/><line style="stroke:#D4AC0D;stroke-width:3.75;" x1="4112.5" x2="4932.5" y1="392.0703" y2="392.0703"/><polygon fill="#FFFF44" points="4137.5,407.0703,4147.5,417.0703,4137.5,427.0703,4127.5,417.0703" style="stroke:#B38D22;stroke-width:2.5;"/><text fill="#000000" font-family="sans-serif" font-size="27.5" lengthAdjust="spacing" textLength="532.5" x="4160" y="430.6177">CardTransactionException (String message)</text><polygon fill="#FFFF44" points="4137.5,441.6602,4147.5,451.6602,4137.5,461.6602,4127.5,451.6602" style="stroke:#B38D22;stroke-width:2.5;"/><text fill="#000000" font-family="sans-serif" font-size="27.5" lengthAdjust="spacing" textLength="760" x="4160" y="465.2075">CardTransactionException (String message, Throwable cause)</text><!--MD5=[4fed77d111fb79c6191508c6ce02a0cc]
class AtomicTransactionException--><rect codeLine="56" fill="#FEFECE" height="189.1797" id="AtomicTransactionException" style="stroke:#D4AC0D;stroke-width:3.75;" width="497.5" x="141.25" y="665.3516"/><ellipse cx="178.75" cy="705.3516" fill="#ADD1B2" rx="27.5" ry="27.5" style="stroke:#ADD1B2;stroke-width:2.5;"/><path d="M183.75,696.6016 Q184.2578,695.3516 184.8438,694.7266 Q185.4297,694.1016 186.0938,694.1016 Q187.2656,694.1016 188.0078,694.8047 Q188.75,695.5078 188.75,697.1484 L188.75,701.0547 Q188.75,702.6953 188.0469,703.3984 Q187.3438,704.1016 186.25,704.1016 Q185.2734,704.1016 184.6484,703.6719 Q184.0234,703.2422 183.75,702.1094 Q183.6328,701.3281 183.2031,700.8984 Q182.4219,700.0781 181.0156,699.6094 Q179.6094,699.1016 178.2031,699.1016 Q176.4453,699.1016 174.9609,699.8047 Q173.5156,700.5078 172.3828,702.0703 Q171.25,703.6328 171.25,705.7813 L171.25,708.0859 Q171.25,710.6641 173.3594,712.3828 Q175.4688,714.1016 179.2188,714.1016 Q181.4453,714.1016 183.0078,713.5938 Q183.9063,713.3203 184.9219,712.4219 Q185.5859,711.9141 185.9375,711.7578 Q186.2891,711.6016 186.7188,711.6016 Q187.5391,711.6016 188.125,712.2656 Q188.75,712.8906 188.75,713.7891 Q188.75,714.6484 187.8906,715.6641 Q186.6406,717.1484 184.6484,717.9688 Q182.0313,719.1016 178.8281,719.1016 Q175.0781,719.1016 172.0703,717.6172 Q169.6484,716.4453 167.9297,713.9063 Q166.25,711.3672 166.25,708.3594 L166.25,705.625 Q166.25,702.5 167.7344,699.7656 Q169.2578,697.0313 171.875,695.5859 Q174.5313,694.1016 177.5,694.1016 Q179.2969,694.1016 180.8594,694.7266 Q182.4219,695.3516 183.75,696.6016 Z " fill="#000000"/><ellipse cx="226.25" cy="704.1016" fill="#84BE84" rx="7.5" ry="7.5" style="stroke:#038048;stroke-width:2.5;"/><text fill="#000000" font-family="sans-serif" font-size="30" font-style="italic" lengthAdjust="spacing" textLength="390" x="241.25" y="717.627">AtomicTransactionException</text><line style="stroke:#D4AC0D;stroke-width:3.75;" x1="143.75" x2="636.25" y1="745.3516" y2="745.3516"/><line style="stroke:#D4AC0D;stroke-width:3.75;" x1="143.75" x2="636.25" y1="765.3516" y2="765.3516"/><ellipse cx="168.75" cy="792.8516" fill="#84BE84" rx="7.5" ry="7.5" style="stroke:#038048;stroke-width:2.5;"/><text fill="#000000" font-family="sans-serif" font-size="27.5" lengthAdjust="spacing" textLength="360" x="191.25" y="803.8989">AtomicTransactionException (</text><text fill="#000000" font-family="sans-serif" font-size="27.5" lengthAdjust="spacing" textLength="197.5" x="251.25" y="838.4888">String message)</text><path d="M140,1039.1016 L140,1104.9805 A0,0 0 0 0 140,1104.9805 L935,1104.9805 A0,0 0 0 0 935,1104.9805 L935,1064.1016 L910,1039.1016 L532.7375,1039.1016 L434.655,855.5666 L512.7375,1039.1016 L140,1039.1016 A0,0 0 0 0 140,1039.1016 " fill="#FBFB77" style="stroke:#A80036;stroke-width:2.5;"/><path d="M910,1039.1016 L910,1064.1016 L935,1064.1016 L910,1039.1016 " fill="#FBFB77" style="stroke:#A80036;stroke-width:2.5;"/><text fill="#000000" font-family="sans-serif" font-size="32.5" lengthAdjust="spacing" textLength="742.5" x="155" y="1085.3394">Session buffer would overflow for atomic transaction</text><!--MD5=[33feb7a96d72f1e95c7e101209223dff]
class AuthenticationNotVerifiedException--><rect codeLine="62" fill="#FEFECE" height="258.3594" id="AuthenticationNotVerifiedException" style="stroke:#D4AC0D;stroke-width:3.75;" width="590" x="727.5" y="631.6016"/><ellipse cx="765" cy="671.6016" fill="#ADD1B2" rx="27.5" ry="27.5" style="stroke:#ADD1B2;stroke-width:2.5;"/><path d="M770,662.8516 Q770.5078,661.6016 771.0938,660.9766 Q771.6797,660.3516 772.3438,660.3516 Q773.5156,660.3516 774.2578,661.0547 Q775,661.7578 775,663.3984 L775,667.3047 Q775,668.9453 774.2969,669.6484 Q773.5938,670.3516 772.5,670.3516 Q771.5234,670.3516 770.8984,669.9219 Q770.2734,669.4922 770,668.3594 Q769.8828,667.5781 769.4531,667.1484 Q768.6719,666.3281 767.2656,665.8594 Q765.8594,665.3516 764.4531,665.3516 Q762.6953,665.3516 761.2109,666.0547 Q759.7656,666.7578 758.6328,668.3203 Q757.5,669.8828 757.5,672.0313 L757.5,674.3359 Q757.5,676.9141 759.6094,678.6328 Q761.7188,680.3516 765.4688,680.3516 Q767.6953,680.3516 769.2578,679.8438 Q770.1563,679.5703 771.1719,678.6719 Q771.8359,678.1641 772.1875,678.0078 Q772.5391,677.8516 772.9688,677.8516 Q773.7891,677.8516 774.375,678.5156 Q775,679.1406 775,680.0391 Q775,680.8984 774.1406,681.9141 Q772.8906,683.3984 770.8984,684.2188 Q768.2813,685.3516 765.0781,685.3516 Q761.3281,685.3516 758.3203,683.8672 Q755.8984,682.6953 754.1797,680.1563 Q752.5,677.6172 752.5,674.6094 L752.5,671.875 Q752.5,668.75 753.9844,666.0156 Q755.5078,663.2813 758.125,661.8359 Q760.7813,660.3516 763.75,660.3516 Q765.5469,660.3516 767.1094,660.9766 Q768.6719,661.6016 770,662.8516 Z " fill="#000000"/><ellipse cx="812.5" cy="670.3516" fill="#84BE84" rx="7.5" ry="7.5" style="stroke:#038048;stroke-width:2.5;"/><text fill="#000000" font-family="sans-serif" font-size="30" font-style="italic" lengthAdjust="spacing" textLength="482.5" x="827.5" y="683.877">AuthenticationNotVerifiedException</text><line style="stroke:#D4AC0D;stroke-width:3.75;" x1="730" x2="1315" y1="711.6016" y2="711.6016"/><line style="stroke:#D4AC0D;stroke-width:3.75;" x1="730" x2="1315" y1="731.6016" y2="731.6016"/><ellipse cx="755" cy="759.1016" fill="#84BE84" rx="7.5" ry="7.5" style="stroke:#038048;stroke-width:2.5;"/><text fill="#000000" font-family="sans-serif" font-size="27.5" lengthAdjust="spacing" textLength="442.5" x="777.5" y="770.1489">AuthenticationNotVerifiedException (</text><text fill="#000000" font-family="sans-serif" font-size="27.5" lengthAdjust="spacing" textLength="197.5" x="837.5" y="804.7388">String message)</text><ellipse cx="755" cy="828.2813" fill="#84BE84" rx="7.5" ry="7.5" style="stroke:#038048;stroke-width:2.5;"/><text fill="#000000" font-family="sans-serif" font-size="27.5" lengthAdjust="spacing" textLength="442.5" x="777.5" y="839.3286">AuthenticationNotVerifiedException (</text><text fill="#000000" font-family="sans-serif" font-size="27.5" lengthAdjust="spacing" textLength="425" x="837.5" y="873.9185">String message, Throwable cause)</text><path d="M1022.5,1039.1016 L1022.5,1104.9805 A0,0 0 0 0 1022.5,1104.9805 L2067.5,1104.9805 A0,0 0 0 0 2067.5,1104.9805 L2067.5,1064.1016 L2042.5,1039.1016 L1503.5375,1039.1016 L1238.0375,889.1841 L1483.5375,1039.1016 L1022.5,1039.1016 A0,0 0 0 0 1022.5,1039.1016 " fill="#FBFB77" style="stroke:#A80036;stroke-width:2.5;"/><path d="M2042.5,1039.1016 L2042.5,1064.1016 L2067.5,1064.1016 L2042.5,1039.1016 " fill="#FBFB77" style="stroke:#A80036;stroke-width:2.5;"/><text fill="#000000" font-family="sans-serif" font-size="32.5" lengthAdjust="spacing" textLength="992.5" x="1037.5" y="1085.3394">R-APDU of CloseSecureSession eq 9000 but SAM no more available</text><!--MD5=[3bee15d0d98fa15b959a08f42bfaede6]
class CardAnomalyException--><rect codeLine="70" fill="#FEFECE" height="189.1797" id="CardAnomalyException" style="stroke:#D4AC0D;stroke-width:3.75;" width="550" x="1405" y="665.3516"/><ellipse cx="1495.375" cy="705.3516" fill="#ADD1B2" rx="27.5" ry="27.5" style="stroke:#ADD1B2;stroke-width:2.5;"/><path d="M1500.375,696.6016 Q1500.8828,695.3516 1501.4688,694.7266 Q1502.0547,694.1016 1502.7188,694.1016 Q1503.8906,694.1016 1504.6328,694.8047 Q1505.375,695.5078 1505.375,697.1484 L1505.375,701.0547 Q1505.375,702.6953 1504.6719,703.3984 Q1503.9688,704.1016 1502.875,704.1016 Q1501.8984,704.1016 1501.2734,703.6719 Q1500.6484,703.2422 1500.375,702.1094 Q1500.2578,701.3281 1499.8281,700.8984 Q1499.0469,700.0781 1497.6406,699.6094 Q1496.2344,699.1016 1494.8281,699.1016 Q1493.0703,699.1016 1491.5859,699.8047 Q1490.1406,700.5078 1489.0078,702.0703 Q1487.875,703.6328 1487.875,705.7813 L1487.875,708.0859 Q1487.875,710.6641 1489.9844,712.3828 Q1492.0938,714.1016 1495.8438,714.1016 Q1498.0703,714.1016 1499.6328,713.5938 Q1500.5313,713.3203 1501.5469,712.4219 Q1502.2109,711.9141 1502.5625,711.7578 Q1502.9141,711.6016 1503.3438,711.6016 Q1504.1641,711.6016 1504.75,712.2656 Q1505.375,712.8906 1505.375,713.7891 Q1505.375,714.6484 1504.5156,715.6641 Q1503.2656,717.1484 1501.2734,717.9688 Q1498.6563,719.1016 1495.4531,719.1016 Q1491.7031,719.1016 1488.6953,717.6172 Q1486.2734,716.4453 1484.5547,713.9063 Q1482.875,711.3672 1482.875,708.3594 L1482.875,705.625 Q1482.875,702.5 1484.3594,699.7656 Q1485.8828,697.0313 1488.5,695.5859 Q1491.1563,694.1016 1494.125,694.1016 Q1495.9219,694.1016 1497.4844,694.7266 Q1499.0469,695.3516 1500.375,696.6016 Z " fill="#000000"/><ellipse cx="1554.625" cy="704.1016" fill="#84BE84" rx="7.5" ry="7.5" style="stroke:#038048;stroke-width:2.5;"/><text fill="#000000" font-family="sans-serif" font-size="30" font-style="italic" lengthAdjust="spacing" textLength="325" x="1569.625" y="717.627">CardAnomalyException</text><line style="stroke:#D4AC0D;stroke-width:3.75;" x1="1407.5" x2="1952.5" y1="745.3516" y2="745.3516"/><line style="stroke:#D4AC0D;stroke-width:3.75;" x1="1407.5" x2="1952.5" y1="765.3516" y2="765.3516"/><ellipse cx="1432.5" cy="792.8516" fill="#84BE84" rx="7.5" ry="7.5" style="stroke:#038048;stroke-width:2.5;"/><text fill="#000000" font-family="sans-serif" font-size="27.5" lengthAdjust="spacing" textLength="297.5" x="1455" y="803.8989">CardAnomalyException (</text><text fill="#000000" font-family="sans-serif" font-size="27.5" lengthAdjust="spacing" textLength="425" x="1515" y="838.4888">String message, Throwable cause)</text><path d="M2156.25,1039.1016 L2156.25,1104.9805 A0,0 0 0 0 2156.25,1104.9805 L2603.75,1104.9805 A0,0 0 0 0 2603.75,1104.9805 L2603.75,1064.1016 L2578.75,1039.1016 L2320.7625,1039.1016 L1891.9225,855.5666 L2300.7625,1039.1016 L2156.25,1039.1016 A0,0 0 0 0 2156.25,1039.1016 " fill="#FBFB77" style="stroke:#A80036;stroke-width:2.5;"/><path d="M2578.75,1039.1016 L2578.75,1064.1016 L2603.75,1064.1016 L2578.75,1039.1016 " fill="#FBFB77" style="stroke:#A80036;stroke-width:2.5;"/><text fill="#000000" font-family="sans-serif" font-size="32.5" lengthAdjust="spacing" textLength="395" x="2171.25" y="1085.3394">Unexpected Card behaviour</text><!--MD5=[14d75005214e291b3784c3b86b1f4410]
class CardCloseSecureSessionException--><rect codeLine="76" fill="#FEFECE" height="189.1797" id="CardCloseSecureSessionException" style="stroke:#D4AC0D;stroke-width:3.75;" width="597.5" x="2043.75" y="665.3516"/><ellipse cx="2081.25" cy="705.3516" fill="#ADD1B2" rx="27.5" ry="27.5" style="stroke:#ADD1B2;stroke-width:2.5;"/><path d="M2086.25,696.6016 Q2086.7578,695.3516 2087.3438,694.7266 Q2087.9297,694.1016 2088.5938,694.1016 Q2089.7656,694.1016 2090.5078,694.8047 Q2091.25,695.5078 2091.25,697.1484 L2091.25,701.0547 Q2091.25,702.6953 2090.5469,703.3984 Q2089.8438,704.1016 2088.75,704.1016 Q2087.7734,704.1016 2087.1484,703.6719 Q2086.5234,703.2422 2086.25,702.1094 Q2086.1328,701.3281 2085.7031,700.8984 Q2084.9219,700.0781 2083.5156,699.6094 Q2082.1094,699.1016 2080.7031,699.1016 Q2078.9453,699.1016 2077.4609,699.8047 Q2076.0156,700.5078 2074.8828,702.0703 Q2073.75,703.6328 2073.75,705.7813 L2073.75,708.0859 Q2073.75,710.6641 2075.8594,712.3828 Q2077.9688,714.1016 2081.7188,714.1016 Q2083.9453,714.1016 2085.5078,713.5938 Q2086.4063,713.3203 2087.4219,712.4219 Q2088.0859,711.9141 2088.4375,711.7578 Q2088.7891,711.6016 2089.2188,711.6016 Q2090.0391,711.6016 2090.625,712.2656 Q2091.25,712.8906 2091.25,713.7891 Q2091.25,714.6484 2090.3906,715.6641 Q2089.1406,717.1484 2087.1484,717.9688 Q2084.5313,719.1016 2081.3281,719.1016 Q2077.5781,719.1016 2074.5703,717.6172 Q2072.1484,716.4453 2070.4297,713.9063 Q2068.75,711.3672 2068.75,708.3594 L2068.75,705.625 Q2068.75,702.5 2070.2344,699.7656 Q2071.7578,697.0313 2074.375,695.5859 Q2077.0313,694.1016 2080,694.1016 Q2081.7969,694.1016 2083.3594,694.7266 Q2084.9219,695.3516 2086.25,696.6016 Z " fill="#000000"/><ellipse cx="2128.75" cy="704.1016" fill="#84BE84" rx="7.5" ry="7.5" style="stroke:#038048;stroke-width:2.5;"/><text fill="#000000" font-family="sans-serif" font-size="30" font-style="italic" lengthAdjust="spacing" textLength="490" x="2143.75" y="717.627">CardCloseSecureSessionException</text><line style="stroke:#D4AC0D;stroke-width:3.75;" x1="2046.25" x2="2638.75" y1="745.3516" y2="745.3516"/><line style="stroke:#D4AC0D;stroke-width:3.75;" x1="2046.25" x2="2638.75" y1="765.3516" y2="765.3516"/><ellipse cx="2071.25" cy="792.8516" fill="#84BE84" rx="7.5" ry="7.5" style="stroke:#038048;stroke-width:2.5;"/><text fill="#000000" font-family="sans-serif" font-size="27.5" lengthAdjust="spacing" textLength="445" x="2093.75" y="803.8989">CardCloseSecureSessionException (</text><text fill="#000000" font-family="sans-serif" font-size="27.5" lengthAdjust="spacing" textLength="425" x="2153.75" y="838.4888">String message, Throwable cause)</text><path d="M2692.5,1039.1016 L2692.5,1104.9805 A0,0 0 0 0 2692.5,1104.9805 L3332.5,1104.9805 A0,0 0 0 0 3332.5,1104.9805 L3332.5,1064.1016 L3307.5,1039.1016 L2956.225,1039.1016 L2545.35,855.5666 L2936.225,1039.1016 L2692.5,1039.1016 A0,0 0 0 0 2692.5,1039.1016 " fill="#FBFB77" style="stroke:#A80036;stroke-width:2.5;"/><path d="M3307.5,1039.1016 L3307.5,1064.1016 L3332.5,1064.1016 L3307.5,1039.1016 " fill="#FBFB77" style="stroke:#A80036;stroke-width:2.5;"/><text fill="#000000" font-family="sans-serif" font-size="32.5" lengthAdjust="spacing" textLength="587.5" x="2707.5" y="1085.3394">R-APDU of CloseSecureSession != 9000</text><!--MD5=[b9fe9ba1034c2a3e6799560463e6b146]
class CardIOException--><rect codeLine="82" fill="#FEFECE" height="258.3594" id="CardIOException" style="stroke:#D4AC0D;stroke-width:3.75;" width="550" x="2730" y="631.6016"/><ellipse cx="2863.125" cy="671.6016" fill="#ADD1B2" rx="27.5" ry="27.5" style="stroke:#ADD1B2;stroke-width:2.5;"/><path d="M2868.125,662.8516 Q2868.6328,661.6016 2869.2188,660.9766 Q2869.8047,660.3516 2870.4688,660.3516 Q2871.6406,660.3516 2872.3828,661.0547 Q2873.125,661.7578 2873.125,663.3984 L2873.125,667.3047 Q2873.125,668.9453 2872.4219,669.6484 Q2871.7188,670.3516 2870.625,670.3516 Q2869.6484,670.3516 2869.0234,669.9219 Q2868.3984,669.4922 2868.125,668.3594 Q2868.0078,667.5781 2867.5781,667.1484 Q2866.7969,666.3281 2865.3906,665.8594 Q2863.9844,665.3516 2862.5781,665.3516 Q2860.8203,665.3516 2859.3359,666.0547 Q2857.8906,666.7578 2856.7578,668.3203 Q2855.625,669.8828 2855.625,672.0313 L2855.625,674.3359 Q2855.625,676.9141 2857.7344,678.6328 Q2859.8438,680.3516 2863.5938,680.3516 Q2865.8203,680.3516 2867.3828,679.8438 Q2868.2813,679.5703 2869.2969,678.6719 Q2869.9609,678.1641 2870.3125,678.0078 Q2870.6641,677.8516 2871.0938,677.8516 Q2871.9141,677.8516 2872.5,678.5156 Q2873.125,679.1406 2873.125,680.0391 Q2873.125,680.8984 2872.2656,681.9141 Q2871.0156,683.3984 2869.0234,684.2188 Q2866.4063,685.3516 2863.2031,685.3516 Q2859.4531,685.3516 2856.4453,683.8672 Q2854.0234,682.6953 2852.3047,680.1563 Q2850.625,677.6172 2850.625,674.6094 L2850.625,671.875 Q2850.625,668.75 2852.1094,666.0156 Q2853.6328,663.2813 2856.25,661.8359 Q2858.9063,660.3516 2861.875,660.3516 Q2863.6719,660.3516 2865.2344,660.9766 Q2866.7969,661.6016 2868.125,662.8516 Z " fill="#000000"/><ellipse cx="2926.875" cy="670.3516" fill="#84BE84" rx="7.5" ry="7.5" style="stroke:#038048;stroke-width:2.5;"/><text fill="#000000" font-family="sans-serif" font-size="30" font-style="italic" lengthAdjust="spacing" textLength="235" x="2941.875" y="683.877">CardIOException</text><line style="stroke:#D4AC0D;stroke-width:3.75;" x1="2732.5" x2="3277.5" y1="711.6016" y2="711.6016"/><line style="stroke:#D4AC0D;stroke-width:3.75;" x1="2732.5" x2="3277.5" y1="731.6016" y2="731.6016"/><ellipse cx="2757.5" cy="759.1016" fill="#84BE84" rx="7.5" ry="7.5" style="stroke:#038048;stroke-width:2.5;"/><text fill="#000000" font-family="sans-serif" font-size="27.5" lengthAdjust="spacing" textLength="217.5" x="2780" y="770.1489">CardIOException (</text><text fill="#000000" font-family="sans-serif" font-size="27.5" lengthAdjust="spacing" textLength="197.5" x="2840" y="804.7388">String message)</text><ellipse cx="2757.5" cy="828.2813" fill="#84BE84" rx="7.5" ry="7.5" style="stroke:#038048;stroke-width:2.5;"/><text fill="#000000" font-family="sans-serif" font-size="27.5" lengthAdjust="spacing" textLength="217.5" x="2780" y="839.3286">CardIOException (</text><text fill="#000000" font-family="sans-serif" font-size="27.5" lengthAdjust="spacing" textLength="425" x="2840" y="873.9185">String message, Throwable cause)</text><!--MD5=[0ad562e61fffa9f0813d67a56c75bf31]
class CardRevokedException--><rect codeLine="89" fill="#FEFECE" height="189.1797" id="CardRevokedException" style="stroke:#D4AC0D;stroke-width:3.75;" width="435" x="3367.5" y="665.3516"/><ellipse cx="3405" cy="705.3516" fill="#ADD1B2" rx="27.5" ry="27.5" style="stroke:#ADD1B2;stroke-width:2.5;"/><path d="M3410,696.6016 Q3410.5078,695.3516 3411.0938,694.7266 Q3411.6797,694.1016 3412.3438,694.1016 Q3413.5156,694.1016 3414.2578,694.8047 Q3415,695.5078 3415,697.1484 L3415,701.0547 Q3415,702.6953 3414.2969,703.3984 Q3413.5938,704.1016 3412.5,704.1016 Q3411.5234,704.1016 3410.8984,703.6719 Q3410.2734,703.2422 3410,702.1094 Q3409.8828,701.3281 3409.4531,700.8984 Q3408.6719,700.0781 3407.2656,699.6094 Q3405.8594,699.1016 3404.4531,699.1016 Q3402.6953,699.1016 3401.2109,699.8047 Q3399.7656,700.5078 3398.6328,702.0703 Q3397.5,703.6328 3397.5,705.7813 L3397.5,708.0859 Q3397.5,710.6641 3399.6094,712.3828 Q3401.7188,714.1016 3405.4688,714.1016 Q3407.6953,714.1016 3409.2578,713.5938 Q3410.1563,713.3203 3411.1719,712.4219 Q3411.8359,711.9141 3412.1875,711.7578 Q3412.5391,711.6016 3412.9688,711.6016 Q3413.7891,711.6016 3414.375,712.2656 Q3415,712.8906 3415,713.7891 Q3415,714.6484 3414.1406,715.6641 Q3412.8906,717.1484 3410.8984,717.9688 Q3408.2813,719.1016 3405.0781,719.1016 Q3401.3281,719.1016 3398.3203,717.6172 Q3395.8984,716.4453 3394.1797,713.9063 Q3392.5,711.3672 3392.5,708.3594 L3392.5,705.625 Q3392.5,702.5 3393.9844,699.7656 Q3395.5078,697.0313 3398.125,695.5859 Q3400.7813,694.1016 3403.75,694.1016 Q3405.5469,694.1016 3407.1094,694.7266 Q3408.6719,695.3516 3410,696.6016 Z " fill="#000000"/><ellipse cx="3452.5" cy="704.1016" fill="#84BE84" rx="7.5" ry="7.5" style="stroke:#038048;stroke-width:2.5;"/><text fill="#000000" font-family="sans-serif" font-size="30" font-style="italic" lengthAdjust="spacing" textLength="327.5" x="3467.5" y="717.627">CardRevokedException</text><line style="stroke:#D4AC0D;stroke-width:3.75;" x1="3370" x2="3800" y1="745.3516" y2="745.3516"/><line style="stroke:#D4AC0D;stroke-width:3.75;" x1="3370" x2="3800" y1="765.3516" y2="765.3516"/><ellipse cx="3395" cy="792.8516" fill="#84BE84" rx="7.5" ry="7.5" style="stroke:#038048;stroke-width:2.5;"/><text fill="#000000" font-family="sans-serif" font-size="27.5" lengthAdjust="spacing" textLength="297.5" x="3417.5" y="803.8989">CardRevokedException (</text><text fill="#000000" font-family="sans-serif" font-size="27.5" lengthAdjust="spacing" textLength="197.5" x="3477.5" y="838.4888">String message)</text><!--MD5=[47cae0f1b8f5af7e2c250c83fea8eeff]
class DesynchronizedExchangesException--><rect codeLine="94" fill="#FEFECE" height="189.1797" id="DesynchronizedExchangesException" style="stroke:#D4AC0D;stroke-width:3.75;" width="620" x="3890" y="665.3516"/><ellipse cx="3927.5" cy="705.3516" fill="#ADD1B2" rx="27.5" ry="27.5" style="stroke:#ADD1B2;stroke-width:2.5;"/><path d="M3932.5,696.6016 Q3933.0078,695.3516 3933.5938,694.7266 Q3934.1797,694.1016 3934.8438,694.1016 Q3936.0156,694.1016 3936.7578,694.8047 Q3937.5,695.5078 3937.5,697.1484 L3937.5,701.0547 Q3937.5,702.6953 3936.7969,703.3984 Q3936.0938,704.1016 3935,704.1016 Q3934.0234,704.1016 3933.3984,703.6719 Q3932.7734,703.2422 3932.5,702.1094 Q3932.3828,701.3281 3931.9531,700.8984 Q3931.1719,700.0781 3929.7656,699.6094 Q3928.3594,699.1016 3926.9531,699.1016 Q3925.1953,699.1016 3923.7109,699.8047 Q3922.2656,700.5078 3921.1328,702.0703 Q3920,703.6328 3920,705.7813 L3920,708.0859 Q3920,710.6641 3922.1094,712.3828 Q3924.2188,714.1016 3927.9688,714.1016 Q3930.1953,714.1016 3931.7578,713.5938 Q3932.6563,713.3203 3933.6719,712.4219 Q3934.3359,711.9141 3934.6875,711.7578 Q3935.0391,711.6016 3935.4688,711.6016 Q3936.2891,711.6016 3936.875,712.2656 Q3937.5,712.8906 3937.5,713.7891 Q3937.5,714.6484 3936.6406,715.6641 Q3935.3906,717.1484 3933.3984,717.9688 Q3930.7813,719.1016 3927.5781,719.1016 Q3923.8281,719.1016 3920.8203,717.6172 Q3918.3984,716.4453 3916.6797,713.9063 Q3915,711.3672 3915,708.3594 L3915,705.625 Q3915,702.5 3916.4844,699.7656 Q3918.0078,697.0313 3920.625,695.5859 Q3923.2813,694.1016 3926.25,694.1016 Q3928.0469,694.1016 3929.6094,694.7266 Q3931.1719,695.3516 3932.5,696.6016 Z " fill="#000000"/><ellipse cx="3975" cy="704.1016" fill="#84BE84" rx="7.5" ry="7.5" style="stroke:#038048;stroke-width:2.5;"/><text fill="#000000" font-family="sans-serif" font-size="30" font-style="italic" lengthAdjust="spacing" textLength="512.5" x="3990" y="717.627">DesynchronizedExchangesException</text><line style="stroke:#D4AC0D;stroke-width:3.75;" x1="3892.5" x2="4507.5" y1="745.3516" y2="745.3516"/><line style="stroke:#D4AC0D;stroke-width:3.75;" x1="3892.5" x2="4507.5" y1="765.3516" y2="765.3516"/><ellipse cx="3917.5" cy="792.8516" fill="#84BE84" rx="7.5" ry="7.5" style="stroke:#038048;stroke-width:2.5;"/><text fill="#000000" font-family="sans-serif" font-size="27.5" lengthAdjust="spacing" textLength="467.5" x="3940" y="803.8989">DesynchronizedExchangesException (</text><text fill="#000000" font-family="sans-serif" font-size="27.5" lengthAdjust="spacing" textLength="197.5" x="4000" y="838.4888">String message)</text><path d="M3790,1039.1016 L3790,1104.9805 A0,0 0 0 0 3790,1104.9805 L4370,1104.9805 A0,0 0 0 0 4370,1104.9805 L4370,1064.1016 L4345,1039.1016 L4102,1039.1016 L4163.675,855.5666 L4082,1039.1016 L3790,1039.1016 A0,0 0 0 0 3790,1039.1016 " fill="#FBFB77" style="stroke:#A80036;stroke-width:2.5;"/><path d="M4345,1039.1016 L4345,1064.1016 L4370,1064.1016 L4345,1039.1016 " fill="#FBFB77" style="stroke:#A80036;stroke-width:2.5;"/><text fill="#000000" font-family="sans-serif" font-size="32.5" lengthAdjust="spacing" textLength="527.5" x="3805" y="1085.3394">R-APDU number != C-APDU number</text><!--MD5=[6f5d5b34374b18b095e66e12cc99b3d9]
class InconsistencyDataException--><rect codeLine="100" fill="#FEFECE" height="189.1797" id="InconsistencyDataException" style="stroke:#D4AC0D;stroke-width:3.75;" width="495" x="4597.5" y="665.3516"/><ellipse cx="4635" cy="705.3516" fill="#ADD1B2" rx="27.5" ry="27.5" style="stroke:#ADD1B2;stroke-width:2.5;"/><path d="M4640,696.6016 Q4640.5078,695.3516 4641.0938,694.7266 Q4641.6797,694.1016 4642.3438,694.1016 Q4643.5156,694.1016 4644.2578,694.8047 Q4645,695.5078 4645,697.1484 L4645,701.0547 Q4645,702.6953 4644.2969,703.3984 Q4643.5938,704.1016 4642.5,704.1016 Q4641.5234,704.1016 4640.8984,703.6719 Q4640.2734,703.2422 4640,702.1094 Q4639.8828,701.3281 4639.4531,700.8984 Q4638.6719,700.0781 4637.2656,699.6094 Q4635.8594,699.1016 4634.4531,699.1016 Q4632.6953,699.1016 4631.2109,699.8047 Q4629.7656,700.5078 4628.6328,702.0703 Q4627.5,703.6328 4627.5,705.7813 L4627.5,708.0859 Q4627.5,710.6641 4629.6094,712.3828 Q4631.7188,714.1016 4635.4688,714.1016 Q4637.6953,714.1016 4639.2578,713.5938 Q4640.1563,713.3203 4641.1719,712.4219 Q4641.8359,711.9141 4642.1875,711.7578 Q4642.5391,711.6016 4642.9688,711.6016 Q4643.7891,711.6016 4644.375,712.2656 Q4645,712.8906 4645,713.7891 Q4645,714.6484 4644.1406,715.6641 Q4642.8906,717.1484 4640.8984,717.9688 Q4638.2813,719.1016 4635.0781,719.1016 Q4631.3281,719.1016 4628.3203,717.6172 Q4625.8984,716.4453 4624.1797,713.9063 Q4622.5,711.3672 4622.5,708.3594 L4622.5,705.625 Q4622.5,702.5 4623.9844,699.7656 Q4625.5078,697.0313 4628.125,695.5859 Q4630.7813,694.1016 4633.75,694.1016 Q4635.5469,694.1016 4637.1094,694.7266 Q4638.6719,695.3516 4640,696.6016 Z " fill="#000000"/><ellipse cx="4682.5" cy="704.1016" fill="#84BE84" rx="7.5" ry="7.5" style="stroke:#038048;stroke-width:2.5;"/><text fill="#000000" font-family="sans-serif" font-size="30" font-style="italic" lengthAdjust="spacing" textLength="387.5" x="4697.5" y="717.627">InconsistencyDataException</text><line style="stroke:#D4AC0D;stroke-width:3.75;" x1="4600" x2="5090" y1="745.3516" y2="745.3516"/><line style="stroke:#D4AC0D;stroke-width:3.75;" x1="4600" x2="5090" y1="765.3516" y2="765.3516"/><ellipse cx="4625" cy="792.8516" fill="#84BE84" rx="7.5" ry="7.5" style="stroke:#038048;stroke-width:2.5;"/><text fill="#000000" font-family="sans-serif" font-size="27.5" lengthAdjust="spacing" textLength="357.5" x="4647.5" y="803.8989">InconsistencyDataException (</text><text fill="#000000" font-family="sans-serif" font-size="27.5" lengthAdjust="spacing" textLength="197.5" x="4707.5" y="838.4888">String message)</text><path d="M4457.5,1039.1016 L4457.5,1104.9805 A0,0 0 0 0 4457.5,1104.9805 L5232.5,1104.9805 A0,0 0 0 0 5232.5,1104.9805 L5232.5,1064.1016 L5207.5,1039.1016 L4855,1039.1016 L4845,855.5666 L4835,1039.1016 L4457.5,1039.1016 A0,0 0 0 0 4457.5,1039.1016 " fill="#FBFB77" style="stroke:#A80036;stroke-width:2.5;"/><path d="M5207.5,1039.1016 L5207.5,1064.1016 L5232.5,1064.1016 L5207.5,1039.1016 " fill="#FBFB77" style="stroke:#A80036;stroke-width:2.5;"/><text fill="#000000" font-family="sans-serif" font-size="32.5" lengthAdjust="spacing" textLength="722.5" x="4472.5" y="1085.3394">Data read in session != Data read outside session</text><!--MD5=[76ab56e4c73c221decf1829c8d7bd38d]
class SamAnomalyException--><rect codeLine="106" fill="#FEFECE" height="189.1797" id="SamAnomalyException" style="stroke:#D4AC0D;stroke-width:3.75;" width="550" x="5180" y="665.3516"/><ellipse cx="5271.5" cy="705.3516" fill="#ADD1B2" rx="27.5" ry="27.5" style="stroke:#ADD1B2;stroke-width:2.5;"/><path d="M5276.5,696.6016 Q5277.0078,695.3516 5277.5938,694.7266 Q5278.1797,694.1016 5278.8438,694.1016 Q5280.0156,694.1016 5280.7578,694.8047 Q5281.5,695.5078 5281.5,697.1484 L5281.5,701.0547 Q5281.5,702.6953 5280.7969,703.3984 Q5280.0938,704.1016 5279,704.1016 Q5278.0234,704.1016 5277.3984,703.6719 Q5276.7734,703.2422 5276.5,702.1094 Q5276.3828,701.3281 5275.9531,700.8984 Q5275.1719,700.0781 5273.7656,699.6094 Q5272.3594,699.1016 5270.9531,699.1016 Q5269.1953,699.1016 5267.7109,699.8047 Q5266.2656,700.5078 5265.1328,702.0703 Q5264,703.6328 5264,705.7813 L5264,708.0859 Q5264,710.6641 5266.1094,712.3828 Q5268.2188,714.1016 5271.9688,714.1016 Q5274.1953,714.1016 5275.7578,713.5938 Q5276.6563,713.3203 5277.6719,712.4219 Q5278.3359,711.9141 5278.6875,711.7578 Q5279.0391,711.6016 5279.4688,711.6016 Q5280.2891,711.6016 5280.875,712.2656 Q5281.5,712.8906 5281.5,713.7891 Q5281.5,714.6484 5280.6406,715.6641 Q5279.3906,717.1484 5277.3984,717.9688 Q5274.7813,719.1016 5271.5781,719.1016 Q5267.8281,719.1016 5264.8203,717.6172 Q5262.3984,716.4453 5260.6797,713.9063 Q5259,711.3672 5259,708.3594 L5259,705.625 Q5259,702.5 5260.4844,699.7656 Q5262.0078,697.0313 5264.625,695.5859 Q5267.2813,694.1016 5270.25,694.1016 Q5272.0469,694.1016 5273.6094,694.7266 Q5275.1719,695.3516 5276.5,696.6016 Z " fill="#000000"/><ellipse cx="5331" cy="704.1016" fill="#84BE84" rx="7.5" ry="7.5" style="stroke:#038048;stroke-width:2.5;"/><text fill="#000000" font-family="sans-serif" font-size="30" font-style="italic" lengthAdjust="spacing" textLength="322.5" x="5346" y="717.627">SamAnomalyException</text><line style="stroke:#D4AC0D;stroke-width:3.75;" x1="5182.5" x2="5727.5" y1="745.3516" y2="745.3516"/><line style="stroke:#D4AC0D;stroke-width:3.75;" x1="5182.5" x2="5727.5" y1="765.3516" y2="765.3516"/><ellipse cx="5207.5" cy="792.8516" fill="#84BE84" rx="7.5" ry="7.5" style="stroke:#038048;stroke-width:2.5;"/><text fill="#000000" font-family="sans-serif" font-size="27.5" lengthAdjust="spacing" textLength="292.5" x="5230" y="803.8989">SamAnomalyException (</text><text fill="#000000" font-family="sans-serif" font-size="27.5" lengthAdjust="spacing" textLength="425" x="5290" y="838.4888">String message, Throwable cause)</text><path d="M5321.25,1039.1016 L5321.25,1104.9805 A0,0 0 0 0 5321.25,1104.9805 L5773.75,1104.9805 A0,0 0 0 0 5773.75,1104.9805 L5773.75,1064.1016 L5748.75,1039.1016 L5548.25,1039.1016 L5483,855.5666 L5528.25,1039.1016 L5321.25,1039.1016 A0,0 0 0 0 5321.25,1039.1016 " fill="#FBFB77" style="stroke:#A80036;stroke-width:2.5;"/><path d="M5748.75,1039.1016 L5748.75,1064.1016 L5773.75,1064.1016 L5748.75,1039.1016 " fill="#FBFB77" style="stroke:#A80036;stroke-width:2.5;"/><text fill="#000000" font-family="sans-serif" font-size="32.5" lengthAdjust="spacing" textLength="400" x="5336.25" y="1085.3394">Unexpected SAM behaviour</text><!--MD5=[37c36f218da2a79d68eef9b5c7ec6bf1]
class SamIOException--><rect codeLine="112" fill="#FEFECE" height="258.3594" id="SamIOException" style="stroke:#D4AC0D;stroke-width:3.75;" width="550" x="5817.5" y="631.6016"/><ellipse cx="5951.875" cy="671.6016" fill="#ADD1B2" rx="27.5" ry="27.5" style="stroke:#ADD1B2;stroke-width:2.5;"/><path d="M5956.875,662.8516 Q5957.3828,661.6016 5957.9688,660.9766 Q5958.5547,660.3516 5959.2188,660.3516 Q5960.3906,660.3516 5961.1328,661.0547 Q5961.875,661.7578 5961.875,663.3984 L5961.875,667.3047 Q5961.875,668.9453 5961.1719,669.6484 Q5960.4688,670.3516 5959.375,670.3516 Q5958.3984,670.3516 5957.7734,669.9219 Q5957.1484,669.4922 5956.875,668.3594 Q5956.7578,667.5781 5956.3281,667.1484 Q5955.5469,666.3281 5954.1406,665.8594 Q5952.7344,665.3516 5951.3281,665.3516 Q5949.5703,665.3516 5948.0859,666.0547 Q5946.6406,666.7578 5945.5078,668.3203 Q5944.375,669.8828 5944.375,672.0313 L5944.375,674.3359 Q5944.375,676.9141 5946.4844,678.6328 Q5948.5938,680.3516 5952.3438,680.3516 Q5954.5703,680.3516 5956.1328,679.8438 Q5957.0313,679.5703 5958.0469,678.6719 Q5958.7109,678.1641 5959.0625,678.0078 Q5959.4141,677.8516 5959.8438,677.8516 Q5960.6641,677.8516 5961.25,678.5156 Q5961.875,679.1406 5961.875,680.0391 Q5961.875,680.8984 5961.0156,681.9141 Q5959.7656,683.3984 5957.7734,684.2188 Q5955.1563,685.3516 5951.9531,685.3516 Q5948.2031,685.3516 5945.1953,683.8672 Q5942.7734,682.6953 5941.0547,680.1563 Q5939.375,677.6172 5939.375,674.6094 L5939.375,671.875 Q5939.375,668.75 5940.8594,666.0156 Q5942.3828,663.2813 5945,661.8359 Q5947.6563,660.3516 5950.625,660.3516 Q5952.4219,660.3516 5953.9844,660.9766 Q5955.5469,661.6016 5956.875,662.8516 Z " fill="#000000"/><ellipse cx="6015.625" cy="670.3516" fill="#84BE84" rx="7.5" ry="7.5" style="stroke:#038048;stroke-width:2.5;"/><text fill="#000000" font-family="sans-serif" font-size="30" font-style="italic" lengthAdjust="spacing" textLength="232.5" x="6030.625" y="683.877">SamIOException</text><line style="stroke:#D4AC0D;stroke-width:3.75;" x1="5820" x2="6365" y1="711.6016" y2="711.6016"/><line style="stroke:#D4AC0D;stroke-width:3.75;" x1="5820" x2="6365" y1="731.6016" y2="731.6016"/><ellipse cx="5845" cy="759.1016" fill="#84BE84" rx="7.5" ry="7.5" style="stroke:#038048;stroke-width:2.5;"/><text fill="#000000" font-family="sans-serif" font-size="27.5" lengthAdjust="spacing" textLength="212.5" x="5867.5" y="770.1489">SamIOException (</text><text fill="#000000" font-family="sans-serif" font-size="27.5" lengthAdjust="spacing" textLength="197.5" x="5927.5" y="804.7388">String message)</text><ellipse cx="5845" cy="828.2813" fill="#84BE84" rx="7.5" ry="7.5" style="stroke:#038048;stroke-width:2.5;"/><text fill="#000000" font-family="sans-serif" font-size="27.5" lengthAdjust="spacing" textLength="212.5" x="5867.5" y="839.3286">SamIOException (</text><text fill="#000000" font-family="sans-serif" font-size="27.5" lengthAdjust="spacing" textLength="425" x="5927.5" y="873.9185">String message, Throwable cause)</text><!--MD5=[d6931d60c95d61e81131816948203223]
class SamRevokedException--><rect codeLine="119" fill="#FEFECE" height="189.1797" id="SamRevokedException" style="stroke:#D4AC0D;stroke-width:3.75;" width="432.5" x="6456.25" y="665.3516"/><ellipse cx="6493.75" cy="705.3516" fill="#ADD1B2" rx="27.5" ry="27.5" style="stroke:#ADD1B2;stroke-width:2.5;"/><path d="M6498.75,696.6016 Q6499.2578,695.3516 6499.8438,694.7266 Q6500.4297,694.1016 6501.0938,694.1016 Q6502.2656,694.1016 6503.0078,694.8047 Q6503.75,695.5078 6503.75,697.1484 L6503.75,701.0547 Q6503.75,702.6953 6503.0469,703.3984 Q6502.3438,704.1016 6501.25,704.1016 Q6500.2734,704.1016 6499.6484,703.6719 Q6499.0234,703.2422 6498.75,702.1094 Q6498.6328,701.3281 6498.2031,700.8984 Q6497.4219,700.0781 6496.0156,699.6094 Q6494.6094,699.1016 6493.2031,699.1016 Q6491.4453,699.1016 6489.9609,699.8047 Q6488.5156,700.5078 6487.3828,702.0703 Q6486.25,703.6328 6486.25,705.7813 L6486.25,708.0859 Q6486.25,710.6641 6488.3594,712.3828 Q6490.4688,714.1016 6494.2188,714.1016 Q6496.4453,714.1016 6498.0078,713.5938 Q6498.9063,713.3203 6499.9219,712.4219 Q6500.5859,711.9141 6500.9375,711.7578 Q6501.2891,711.6016 6501.7188,711.6016 Q6502.5391,711.6016 6503.125,712.2656 Q6503.75,712.8906 6503.75,713.7891 Q6503.75,714.6484 6502.8906,715.6641 Q6501.6406,717.1484 6499.6484,717.9688 Q6497.0313,719.1016 6493.8281,719.1016 Q6490.0781,719.1016 6487.0703,717.6172 Q6484.6484,716.4453 6482.9297,713.9063 Q6481.25,711.3672 6481.25,708.3594 L6481.25,705.625 Q6481.25,702.5 6482.7344,699.7656 Q6484.2578,697.0313 6486.875,695.5859 Q6489.5313,694.1016 6492.5,694.1016 Q6494.2969,694.1016 6495.8594,694.7266 Q6497.4219,695.3516 6498.75,696.6016 Z " fill="#000000"/><ellipse cx="6541.25" cy="704.1016" fill="#84BE84" rx="7.5" ry="7.5" style="stroke:#038048;stroke-width:2.5;"/><text fill="#000000" font-family="sans-serif" font-size="30" font-style="italic" lengthAdjust="spacing" textLength="325" x="6556.25" y="717.627">SamRevokedException</text><line style="stroke:#D4AC0D;stroke-width:3.75;" x1="6458.75" x2="6886.25" y1="745.3516" y2="745.3516"/><line style="stroke:#D4AC0D;stroke-width:3.75;" x1="6458.75" x2="6886.25" y1="765.3516" y2="765.3516"/><ellipse cx="6483.75" cy="792.8516" fill="#84BE84" rx="7.5" ry="7.5" style="stroke:#038048;stroke-width:2.5;"/><text fill="#000000" font-family="sans-serif" font-size="27.5" lengthAdjust="spacing" textLength="292.5" x="6506.25" y="803.8989">SamRevokedException (</text><text fill="#000000" font-family="sans-serif" font-size="27.5" lengthAdjust="spacing" textLength="197.5" x="6566.25" y="838.4888">String message)</text><!--MD5=[8b6a1bfd64c5616fcfcd63d9c24e6acd]
class SessionAuthenticationException--><rect codeLine="124" fill="#FEFECE" height="258.3594" id="SessionAuthenticationException" style="stroke:#D4AC0D;stroke-width:3.75;" width="550" x="6977.5" y="631.6016"/><ellipse cx="7016.125" cy="671.6016" fill="#ADD1B2" rx="27.5" ry="27.5" style="stroke:#ADD1B2;stroke-width:2.5;"/><path d="M7021.125,662.8516 Q7021.6328,661.6016 7022.2188,660.9766 Q7022.8047,660.3516 7023.4688,660.3516 Q7024.6406,660.3516 7025.3828,661.0547 Q7026.125,661.7578 7026.125,663.3984 L7026.125,667.3047 Q7026.125,668.9453 7025.4219,669.6484 Q7024.7188,670.3516 7023.625,670.3516 Q7022.6484,670.3516 7022.0234,669.9219 Q7021.3984,669.4922 7021.125,668.3594 Q7021.0078,667.5781 7020.5781,667.1484 Q7019.7969,666.3281 7018.3906,665.8594 Q7016.9844,665.3516 7015.5781,665.3516 Q7013.8203,665.3516 7012.3359,666.0547 Q7010.8906,666.7578 7009.7578,668.3203 Q7008.625,669.8828 7008.625,672.0313 L7008.625,674.3359 Q7008.625,676.9141 7010.7344,678.6328 Q7012.8438,680.3516 7016.5938,680.3516 Q7018.8203,680.3516 7020.3828,679.8438 Q7021.2813,679.5703 7022.2969,678.6719 Q7022.9609,678.1641 7023.3125,678.0078 Q7023.6641,677.8516 7024.0938,677.8516 Q7024.9141,677.8516 7025.5,678.5156 Q7026.125,679.1406 7026.125,680.0391 Q7026.125,680.8984 7025.2656,681.9141 Q7024.0156,683.3984 7022.0234,684.2188 Q7019.4063,685.3516 7016.2031,685.3516 Q7012.4531,685.3516 7009.4453,683.8672 Q7007.0234,682.6953 7005.3047,680.1563 Q7003.625,677.6172 7003.625,674.6094 L7003.625,671.875 Q7003.625,668.75 7005.1094,666.0156 Q7006.6328,663.2813 7009.25,661.8359 Q7011.9063,660.3516 7014.875,660.3516 Q7016.6719,660.3516 7018.2344,660.9766 Q7019.7969,661.6016 7021.125,662.8516 Z " fill="#000000"/><ellipse cx="7063.875" cy="670.3516" fill="#84BE84" rx="7.5" ry="7.5" style="stroke:#038048;stroke-width:2.5;"/><text fill="#000000" font-family="sans-serif" font-size="30" font-style="italic" lengthAdjust="spacing" textLength="440" x="7078.875" y="683.877">SessionAuthenticationException</text><line style="stroke:#D4AC0D;stroke-width:3.75;" x1="6980" x2="7525" y1="711.6016" y2="711.6016"/><line style="stroke:#D4AC0D;stroke-width:3.75;" x1="6980" x2="7525" y1="731.6016" y2="731.6016"/><ellipse cx="7005" cy="759.1016" fill="#84BE84" rx="7.5" ry="7.5" style="stroke:#038048;stroke-width:2.5;"/><text fill="#000000" font-family="sans-serif" font-size="27.5" lengthAdjust="spacing" textLength="405" x="7027.5" y="770.1489">SessionAuthenticationException (</text><text fill="#000000" font-family="sans-serif" font-size="27.5" lengthAdjust="spacing" textLength="197.5" x="7087.5" y="804.7388">String message)</text><ellipse cx="7005" cy="828.2813" fill="#84BE84" rx="7.5" ry="7.5" style="stroke:#038048;stroke-width:2.5;"/><text fill="#000000" font-family="sans-serif" font-size="27.5" lengthAdjust="spacing" textLength="405" x="7027.5" y="839.3286">SessionAuthenticationException (</text><text fill="#000000" font-family="sans-serif" font-size="27.5" lengthAdjust="spacing" textLength="425" x="7087.5" y="873.9185">String message, Throwable cause)</text><path d="M6942.5,1039.1016 L6942.5,1104.9805 A0,0 0 0 0 6942.5,1104.9805 L7562.5,1104.9805 A0,0 0 0 0 7562.5,1104.9805 L7562.5,1064.1016 L7537.5,1039.1016 L7262.5,1039.1016 L7252.5,889.1841 L7242.5,1039.1016 L6942.5,1039.1016 A0,0 0 0 0 6942.5,1039.1016 " fill="#FBFB77" style="stroke:#A80036;stroke-width:2.5;"/><path d="M7537.5,1039.1016 L7537.5,1064.1016 L7562.5,1064.1016 L7537.5,1039.1016 " fill="#FBFB77" style="stroke:#A80036;stroke-width:2.5;"/><text fill="#000000" font-family="sans-serif" font-size="32.5" lengthAdjust="spacing" textLength="567.5" x="6957.5" y="1085.3394">R-APDU of DigestAuthenticate eq 6985</text><!--MD5=[ff40b66a7e25ae6fbf6de22464173090]
class SvAuthenticationException--><rect codeLine="132" fill="#FEFECE" height="258.3594" id="SvAuthenticationException" style="stroke:#D4AC0D;stroke-width:3.75;" width="550" x="7615" y="631.6016"/><ellipse cx="7687.375" cy="671.6016" fill="#ADD1B2" rx="27.5" ry="27.5" style="stroke:#ADD1B2;stroke-width:2.5;"/><path d="M7692.375,662.8516 Q7692.8828,661.6016 7693.4688,660.9766 Q7694.0547,660.3516 7694.7188,660.3516 Q7695.8906,660.3516 7696.6328,661.0547 Q7697.375,661.7578 7697.375,663.3984 L7697.375,667.3047 Q7697.375,668.9453 7696.6719,669.6484 Q7695.9688,670.3516 7694.875,670.3516 Q7693.8984,670.3516 7693.2734,669.9219 Q7692.6484,669.4922 7692.375,668.3594 Q7692.2578,667.5781 7691.8281,667.1484 Q7691.0469,666.3281 7689.6406,665.8594 Q7688.2344,665.3516 7686.8281,665.3516 Q7685.0703,665.3516 7683.5859,666.0547 Q7682.1406,666.7578 7681.0078,668.3203 Q7679.875,669.8828 7679.875,672.0313 L7679.875,674.3359 Q7679.875,676.9141 7681.9844,678.6328 Q7684.0938,680.3516 7687.8438,680.3516 Q7690.0703,680.3516 7691.6328,679.8438 Q7692.5313,679.5703 7693.5469,678.6719 Q7694.2109,678.1641 7694.5625,678.0078 Q7694.9141,677.8516 7695.3438,677.8516 Q7696.1641,677.8516 7696.75,678.5156 Q7697.375,679.1406 7697.375,680.0391 Q7697.375,680.8984 7696.5156,681.9141 Q7695.2656,683.3984 7693.2734,684.2188 Q7690.6563,685.3516 7687.4531,685.3516 Q7683.7031,685.3516 7680.6953,683.8672 Q7678.2734,682.6953 7676.5547,680.1563 Q7674.875,677.6172 7674.875,674.6094 L7674.875,671.875 Q7674.875,668.75 7676.3594,666.0156 Q7677.8828,663.2813 7680.5,661.8359 Q7683.1563,660.3516 7686.125,660.3516 Q7687.9219,660.3516 7689.4844,660.9766 Q7691.0469,661.6016 7692.375,662.8516 Z " fill="#000000"/><ellipse cx="7742.625" cy="670.3516" fill="#84BE84" rx="7.5" ry="7.5" style="stroke:#038048;stroke-width:2.5;"/><text fill="#000000" font-family="sans-serif" font-size="30" font-style="italic" lengthAdjust="spacing" textLength="365" x="7757.625" y="683.877">SvAuthenticationException</text><line style="stroke:#D4AC0D;stroke-width:3.75;" x1="7617.5" x2="8162.5" y1="711.6016" y2="711.6016"/><line style="stroke:#D4AC0D;stroke-width:3.75;" x1="7617.5" x2="8162.5" y1="731.6016" y2="731.6016"/><ellipse cx="7642.5" cy="759.1016" fill="#84BE84" rx="7.5" ry="7.5" style="stroke:#038048;stroke-width:2.5;"/><text fill="#000000" font-family="sans-serif" font-size="27.5" lengthAdjust="spacing" textLength="340" x="7665" y="770.1489">SvAuthenticationException (</text><text fill="#000000" font-family="sans-serif" font-size="27.5" lengthAdjust="spacing" textLength="197.5" x="7725" y="804.7388">String message)</text><ellipse cx="7642.5" cy="828.2813" fill="#84BE84" rx="7.5" ry="7.5" style="stroke:#038048;stroke-width:2.5;"/><text fill="#000000" font-family="sans-serif" font-size="27.5" lengthAdjust="spacing" textLength="340" x="7665" y="839.3286">SvAuthenticationException (</text><text fill="#000000" font-family="sans-serif" font-size="27.5" lengthAdjust="spacing" textLength="425" x="7725" y="873.9185">String message, Throwable cause)</text><path d="M7653.75,1039.1016 L7653.75,1104.9805 A0,0 0 0 0 7653.75,1104.9805 L8126.25,1104.9805 A0,0 0 0 0 8126.25,1104.9805 L8126.25,1064.1016 L8101.25,1039.1016 L7900,1039.1016 L7890,889.1841 L7880,1039.1016 L7653.75,1039.1016 A0,0 0 0 0 7653.75,1039.1016 " fill="#FBFB77" style="stroke:#A80036;stroke-width:2.5;"/><path d="M8101.25,1039.1016 L8101.25,1064.1016 L8126.25,1064.1016 L8101.25,1039.1016 " fill="#FBFB77" style="stroke:#A80036;stroke-width:2.5;"/><text fill="#000000" font-family="sans-serif" font-size="32.5" lengthAdjust="spacing" textLength="420" x="7668.75" y="1085.3394">R-APDU of SvCheck eq 6985</text><!--MD5=[36d0a2eb9b5468623b592c4aa561cde5]
class UnauthorizedKeyException--><rect codeLine="140" fill="#FEFECE" height="189.1797" id="UnauthorizedKeyException" style="stroke:#D4AC0D;stroke-width:3.75;" width="482.5" x="8253.75" y="665.3516"/><ellipse cx="8291.25" cy="705.3516" fill="#ADD1B2" rx="27.5" ry="27.5" style="stroke:#ADD1B2;stroke-width:2.5;"/><path d="M8296.25,696.6016 Q8296.7578,695.3516 8297.3438,694.7266 Q8297.9297,694.1016 8298.5938,694.1016 Q8299.7656,694.1016 8300.5078,694.8047 Q8301.25,695.5078 8301.25,697.1484 L8301.25,701.0547 Q8301.25,702.6953 8300.5469,703.3984 Q8299.8438,704.1016 8298.75,704.1016 Q8297.7734,704.1016 8297.1484,703.6719 Q8296.5234,703.2422 8296.25,702.1094 Q8296.1328,701.3281 8295.7031,700.8984 Q8294.9219,700.0781 8293.5156,699.6094 Q8292.1094,699.1016 8290.7031,699.1016 Q8288.9453,699.1016 8287.4609,699.8047 Q8286.0156,700.5078 8284.8828,702.0703 Q8283.75,703.6328 8283.75,705.7813 L8283.75,708.0859 Q8283.75,710.6641 8285.8594,712.3828 Q8287.9688,714.1016 8291.7188,714.1016 Q8293.9453,714.1016 8295.5078,713.5938 Q8296.4063,713.3203 8297.4219,712.4219 Q8298.0859,711.9141 8298.4375,711.7578 Q8298.7891,711.6016 8299.2188,711.6016 Q8300.0391,711.6016 8300.625,712.2656 Q8301.25,712.8906 8301.25,713.7891 Q8301.25,714.6484 8300.3906,715.6641 Q8299.1406,717.1484 8297.1484,717.9688 Q8294.5313,719.1016 8291.3281,719.1016 Q8287.5781,719.1016 8284.5703,717.6172 Q8282.1484,716.4453 8280.4297,713.9063 Q8278.75,711.3672 8278.75,708.3594 L8278.75,705.625 Q8278.75,702.5 8280.2344,699.7656 Q8281.7578,697.0313 8284.375,695.5859 Q8287.0313,694.1016 8290,694.1016 Q8291.7969,694.1016 8293.3594,694.7266 Q8294.9219,695.3516 8296.25,696.6016 Z " fill="#000000"/><ellipse cx="8338.75" cy="704.1016" fill="#84BE84" rx="7.5" ry="7.5" style="stroke:#038048;stroke-width:2.5;"/><text fill="#000000" font-family="sans-serif" font-size="30" font-style="italic" lengthAdjust="spacing" textLength="375" x="8353.75" y="717.627">UnauthorizedKeyException</text><line style="stroke:#D4AC0D;stroke-width:3.75;" x1="8256.25" x2="8733.75" y1="745.3516" y2="745.3516"/><line style="stroke:#D4AC0D;stroke-width:3.75;" x1="8256.25" x2="8733.75" y1="765.3516" y2="765.3516"/><ellipse cx="8281.25" cy="792.8516" fill="#84BE84" rx="7.5" ry="7.5" style="stroke:#038048;stroke-width:2.5;"/><text fill="#000000" font-family="sans-serif" font-size="27.5" lengthAdjust="spacing" textLength="342.5" x="8303.75" y="803.8989">UnauthorizedKeyException (</text><text fill="#000000" font-family="sans-serif" font-size="27.5" lengthAdjust="spacing" textLength="197.5" x="8363.75" y="838.4888">String message)</text><!--MD5=[a9197d67b52b80c80ba500ca032db95e]
reverse link CardTransactionException to AtomicTransactionException--><path d="M4059.25,389.8341 C3182.15,413.4091 1310.7125,480.1541 682.5,631.6016 C648.0875,639.8966 612.6,651.9366 578.725,665.3266 " fill="none" id="CardTransactionException-backto-AtomicTransactionException" style="stroke:#A80036;stroke-width:2.5;"/><polygon fill="none" points="4059.375,372.3241,4109.825,388.4941,4060.3,407.3141,4059.375,372.3241" style="stroke:#A80036;stroke-width:2.5;"/><!--MD5=[cfcf8aa1aecc5e5769abdcfe6554a0f7]
reverse link CardTransactionException to AuthenticationNotVerifiedException--><path d="M4058.75,400.2691 C3308.25,437.1941 1860.945,520.2041 1360,631.6016 C1346.26,634.6566 1332.3275,638.1516 1318.345,641.9816 " fill="none" id="CardTransactionException-backto-AuthenticationNotVerifiedException" style="stroke:#A80036;stroke-width:2.5;"/><polygon fill="none" points="4058.575,382.7566,4109.375,397.7966,4060.275,417.7141,4058.575,382.7566" style="stroke:#A80036;stroke-width:2.5;"/><!--MD5=[914d3bf0c99285e37a422f51b58c6a6f]
reverse link CardTransactionException to CardAnomalyException--><path d="M4058.575,387.3591 C3547.625,405.2366 2704.925,460.7566 2000,631.6016 C1964.0125,640.3241 1926.6875,652.2266 1890.785,665.2566 " fill="none" id="CardTransactionException-backto-CardAnomalyException" style="stroke:#A80036;stroke-width:2.5;"/><polygon fill="none" points="4058.7,369.8441,4109.275,385.6716,4059.875,404.8266,4058.7,369.8441" style="stroke:#A80036;stroke-width:2.5;"/><!--MD5=[ce15278d47b5d9b9352e21f79b37df76]
reverse link CardTransactionException to CardCloseSecureSessionException--><path d="M4059.275,414.7841 C3684.525,450.3116 3145.325,516.5766 2685,631.6016 C2648.425,640.7416 2610.35,652.4541 2573.425,665.0491 " fill="none" id="CardTransactionException-backto-CardCloseSecureSessionException" style="stroke:#A80036;stroke-width:2.5;"/><polygon fill="none" points="4058.475,397.2816,4109.875,410.0766,4061.7,432.1316,4058.475,397.2816" style="stroke:#A80036;stroke-width:2.5;"/><!--MD5=[70f0aa50229426b9045bf4ab921fa4bc]
reverse link CardTransactionException to CardIOException--><path d="M4060.45,457.1741 C3835.5,500.0191 3562.475,559.2266 3322.5,631.6016 C3308.575,635.7991 3294.425,640.3491 3280.2,645.1441 " fill="none" id="CardTransactionException-backto-CardIOException" style="stroke:#A80036;stroke-width:2.5;"/><polygon fill="none" points="4057.525,439.9191,4109.9,447.8716,4064,474.3141,4057.525,439.9191" style="stroke:#A80036;stroke-width:2.5;"/><!--MD5=[0b5f49b6c30c7717d7e098f82e594448]
reverse link CardTransactionException to CardRevokedException--><path d="M4181.025,499.1541 C4072.725,539.1516 3953.075,585.3516 3845,631.6016 C3820.55,642.0666 3795.075,653.6091 3770.05,665.3341 " fill="none" id="CardTransactionException-backto-CardRevokedException" style="stroke:#A80036;stroke-width:2.5;"/><polygon fill="none" points="4175.325,482.6066,4228.3,481.8266,4187.375,515.4691,4175.325,482.6066" style="stroke:#A80036;stroke-width:2.5;"/><!--MD5=[922d990ab468e42592a57fac43865780]
reverse link CardTransactionException to DesynchronizedExchangesException--><path d="M4401.8,520.8416 C4360.825,568.9741 4316.1,621.4941 4279.2,664.8341 " fill="none" id="CardTransactionException-backto-DesynchronizedExchangesException" style="stroke:#A80036;stroke-width:2.5;"/><polygon fill="none" points="4388.625,509.3216,4434.375,482.5966,4415.275,532.0116,4388.625,509.3216" style="stroke:#A80036;stroke-width:2.5;"/><!--MD5=[4d37b6766435fcc56ff7130497b1eb36]
reverse link CardTransactionException to InconsistencyDataException--><path d="M4643.2,520.8416 C4684.175,568.9741 4728.9,621.4941 4765.8,664.8341 " fill="none" id="CardTransactionException-backto-InconsistencyDataException" style="stroke:#A80036;stroke-width:2.5;"/><polygon fill="none" points="4629.725,532.0116,4610.625,482.5966,4656.375,509.3216,4629.725,532.0116" style="stroke:#A80036;stroke-width:2.5;"/><!--MD5=[ee9a856b6512e30e4325c16e94a0a25f]
reverse link CardTransactionException to SamAnomalyException--><path d="M4822.5,500.9491 C4953.725,554.2491 5105.175,615.7641 5226.975,665.2341 " fill="none" id="CardTransactionException-backto-SamAnomalyException" style="stroke:#A80036;stroke-width:2.5;"/><polygon fill="none" points="4815.825,517.1266,4776.075,482.0966,4829,484.6991,4815.825,517.1266" style="stroke:#A80036;stroke-width:2.5;"/><!--MD5=[a29f70ec044dfbfc00850e9c419eb539]
reverse link CardTransactionException to SamIOException--><path d="M4985,452.4191 C5222.8,495.1616 5515.825,555.6891 5772.5,631.6016 C5787.1,635.9216 5801.975,640.6316 5816.9,645.6141 " fill="none" id="CardTransactionException-backto-SamIOException" style="stroke:#A80036;stroke-width:2.5;"/><polygon fill="none" points="4981.3,469.5366,4935.125,443.5691,4987.4,435.0741,4981.3,469.5366" style="stroke:#A80036;stroke-width:2.5;"/><!--MD5=[e8926956e3d1b401aa1ca86f1ffc77f0]
reverse link CardTransactionException to SamRevokedException--><path d="M4985.25,400.3291 C5372.675,427.6841 5936.625,490.0116 6410,631.6016 C6439.55,640.4416 6469.925,652.2366 6499.05,665.0766 " fill="none" id="CardTransactionException-backto-SamRevokedException" style="stroke:#A80036;stroke-width:2.5;"/><polygon fill="none" points="4984.025,417.7891,4935.325,396.9316,4986.4,382.8691,4984.025,417.7891" style="stroke:#A80036;stroke-width:2.5;"/><!--MD5=[d94bb76ce2f8a94c0e9d36a4ad7d9312]
reverse link CardTransactionException to SessionAuthenticationException--><path d="M4985.65,390.4616 C5475.6,411.0616 6268.15,468.9616 6932.5,631.6016 C6947.3,635.2241 6962.325,639.3766 6977.375,643.9166 " fill="none" id="CardTransactionException-backto-SessionAuthenticationException" style="stroke:#A80036;stroke-width:2.5;"/><polygon fill="none" points="4984.775,407.9391,4935.525,388.4391,4986.2,372.9691,4984.775,407.9391" style="stroke:#A80036;stroke-width:2.5;"/><!--MD5=[1db0b297869a6a08b89303888da3e5ba]
reverse link CardTransactionException to SvAuthenticationException--><path d="M4985.425,400.6641 C5713.85,437.4216 7093.95,519.2841 7572.5,631.6016 C7586.35,634.8541 7600.4,638.6066 7614.5,642.7366 " fill="none" id="CardTransactionException-backto-SvAuthenticationException" style="stroke:#A80036;stroke-width:2.5;"/><polygon fill="none" points="4984.25,418.1266,4935.2,398.1491,4986,383.1716,4984.25,418.1266" style="stroke:#A80036;stroke-width:2.5;"/><!--MD5=[362191f1ea2ce6b42e22015598aad429]
reverse link CardTransactionException to UnauthorizedKeyException--><path d="M4985.725,390.7741 C5835.625,415.5066 7611.825,483.5166 8210,631.6016 C8243.35,639.8591 8277.7,651.7891 8310.5,665.0591 " fill="none" id="CardTransactionException-backto-UnauthorizedKeyException" style="stroke:#A80036;stroke-width:2.5;"/><polygon fill="none" points="4984.9,408.2566,4935.425,389.3291,4985.9,373.2716,4984.9,408.2566" style="stroke:#A80036;stroke-width:2.5;"/><!--MD5=[571cc3b0dbd05e3ee4ae3013ed116154]
@startuml
title
    Calypsonet - Exceptions of calypsonet-terminal-calypso-java-api - 1.0.+ (10/06/2021)
end title

' == THEME ==

'Couleurs issues de : https://htmlcolorcodes.com/fr/tableau-de-couleur/tableau-de-couleur-design-plat/
!define C_GREY1 F8F9F9
!define C_GREY2 F2F3F4
!define C_GREY3 E5E7E9
!define C_GREY4 D7DBDD
!define C_GREY5 CACFD2
!define C_GREY6 BDC3C7
!define C_LINK 3498DB
!define C_USE 27AE60

skinparam Shadowing false
skinparam ClassFontStyle italic
skinparam ClassBorderColor #D4AC0D
skinparam stereotypeABorderColor #A9DCDF
skinparam stereotypeIBorderColor #B4A7E5
skinparam stereotypeCBorderColor #ADD1B2
skinparam stereotypeEBorderColor #EB93DF
' Red
skinparam ClassBackgroundColor<<red>> #FDEDEC
skinparam ClassBorderColor<<red>> #E74C3C
hide <<red>> stereotype
' Purple
skinparam ClassBackgroundColor<<purple>> #F4ECF7
skinparam ClassBorderColor<<purple>> #8E44AD
hide <<purple>> stereotype
' blue
skinparam ClassBackgroundColor<<blue>> #EBF5FB
skinparam ClassBorderColor<<blue>> #3498DB
hide <<blue>> stereotype
' Green
skinparam ClassBackgroundColor<<green>> #E9F7EF
skinparam ClassBorderColor<<green>> #27AE60
hide <<green>> stereotype
' Grey
skinparam ClassBackgroundColor<<grey>> #EAECEE
skinparam ClassBorderColor<<grey>> #2C3E50
hide <<grey>> stereotype

' == CONTENT ==

package "org.calypsonet.terminal.calypso" as api {

    package transaction {

        +abstract class "<<RuntimeException>>\nCardTransactionException" as CardTransactionException {
            #CardTransactionException (String message)
            #CardTransactionException (String message, Throwable cause)
        }

        +class "AtomicTransactionException" as AtomicTransactionException extends CardTransactionException {
            +AtomicTransactionException (
                \tString message)
        }
        note bottom of AtomicTransactionException: Session buffer would overflow for atomic transaction

        +class "AuthenticationNotVerifiedException" as AuthenticationNotVerifiedException extends CardTransactionException {
            +AuthenticationNotVerifiedException (
                \tString message)
            +AuthenticationNotVerifiedException (
                \tString message, Throwable cause)
        }
        note bottom of AuthenticationNotVerifiedException: R-APDU of CloseSecureSession eq 9000 but SAM no more available

        +class "CardAnomalyException" as CardAnomalyException extends CardTransactionException {
            +CardAnomalyException (
                \tString message, Throwable cause)
        }
        note bottom of CardAnomalyException: Unexpected Card behaviour

        +class "CardCloseSecureSessionException" as CardCloseSecureSessionException extends CardTransactionException {
            +CardCloseSecureSessionException (
                \tString message, Throwable cause)
        }
        note bottom of CardCloseSecureSessionException: R-APDU of CloseSecureSession != 9000

        +class "CardIOException" as CardIOException extends CardTransactionException {
            +CardIOException (
                \tString message)
            +CardIOException (
                \tString message, Throwable cause)
        }

        +class "CardRevokedException" as CardRevokedException extends CardTransactionException {
            +CardRevokedException (
                \tString message)
        }

        +class "DesynchronizedExchangesException" as DesynchronizedExchangesException extends CardTransactionException {
            +DesynchronizedExchangesException (
                \tString message)
        }
        note bottom of DesynchronizedExchangesException: R-APDU number != C-APDU number

        +class "InconsistencyDataException" as InconsistencyDataException extends CardTransactionException {
            +InconsistencyDataException (
                \tString message)
        }
        note bottom of InconsistencyDataException: Data read in session != Data read outside session

        +class "SamAnomalyException" as SamAnomalyException extends CardTransactionException {
            +SamAnomalyException (
                \tString message, Throwable cause)
        }
        note bottom of SamAnomalyException: Unexpected SAM behaviour

        +class "SamIOException" as SamIOException extends CardTransactionException {
            +SamIOException (
                \tString message)
            +SamIOException (
                \tString message, Throwable cause)
        }

        +class "SamRevokedException" as SamRevokedException extends CardTransactionException {
            +SamRevokedException (
                \tString message)
        }

        +class "SessionAuthenticationException" as SessionAuthenticationException extends CardTransactionException {
            +SessionAuthenticationException (
                \tString message)
            +SessionAuthenticationException (
                \tString message, Throwable cause)
        }
        note bottom of SessionAuthenticationException: R-APDU of DigestAuthenticate eq 6985

        +class "SvAuthenticationException" as SvAuthenticationException extends CardTransactionException {
            +SvAuthenticationException (
                \tString message)
            +SvAuthenticationException (
                \tString message, Throwable cause)
        }
        note bottom of SvAuthenticationException: R-APDU of SvCheck eq 6985

        +class "UnauthorizedKeyException" as UnauthorizedKeyException extends CardTransactionException {
            +UnauthorizedKeyException (
                \tString message)
        }

    }
}

' Associations

' == LAYOUT ==

'CardTransactionException -[hidden]left- AtomicTransactionException

' == STYLE ==

package api #C_GREY1 {}
package transaction #C_GREY2 {}


@enduml

@startuml
title
    Calypsonet - Exceptions of calypsonet-terminal-calypso-java-api - 1.0.+ (10/06/2021)
end title



skinparam Shadowing false
skinparam ClassFontStyle italic
skinparam ClassBorderColor #D4AC0D
skinparam stereotypeABorderColor #A9DCDF
skinparam stereotypeIBorderColor #B4A7E5
skinparam stereotypeCBorderColor #ADD1B2
skinparam stereotypeEBorderColor #EB93DF
skinparam ClassBackgroundColor<<red>> #FDEDEC
skinparam ClassBorderColor<<red>> #E74C3C
hide <<red>> stereotype
skinparam ClassBackgroundColor<<purple>> #F4ECF7
skinparam ClassBorderColor<<purple>> #8E44AD
hide <<purple>> stereotype
skinparam ClassBackgroundColor<<blue>> #EBF5FB
skinparam ClassBorderColor<<blue>> #3498DB
hide <<blue>> stereotype
skinparam ClassBackgroundColor<<green>> #E9F7EF
skinparam ClassBorderColor<<green>> #27AE60
hide <<green>> stereotype
skinparam ClassBackgroundColor<<grey>> #EAECEE
skinparam ClassBorderColor<<grey>> #2C3E50
hide <<grey>> stereotype


package "org.calypsonet.terminal.calypso" as api {

    package transaction {

        +abstract class "<<RuntimeException>>\nCardTransactionException" as CardTransactionException {
            #CardTransactionException (String message)
            #CardTransactionException (String message, Throwable cause)
        }

        +class "AtomicTransactionException" as AtomicTransactionException extends CardTransactionException {
            +AtomicTransactionException (
                \tString message)
        }
        note bottom of AtomicTransactionException: Session buffer would overflow for atomic transaction

        +class "AuthenticationNotVerifiedException" as AuthenticationNotVerifiedException extends CardTransactionException {
            +AuthenticationNotVerifiedException (
                \tString message)
            +AuthenticationNotVerifiedException (
                \tString message, Throwable cause)
        }
        note bottom of AuthenticationNotVerifiedException: R-APDU of CloseSecureSession eq 9000 but SAM no more available

        +class "CardAnomalyException" as CardAnomalyException extends CardTransactionException {
            +CardAnomalyException (
                \tString message, Throwable cause)
        }
        note bottom of CardAnomalyException: Unexpected Card behaviour

        +class "CardCloseSecureSessionException" as CardCloseSecureSessionException extends CardTransactionException {
            +CardCloseSecureSessionException (
                \tString message, Throwable cause)
        }
        note bottom of CardCloseSecureSessionException: R-APDU of CloseSecureSession != 9000

        +class "CardIOException" as CardIOException extends CardTransactionException {
            +CardIOException (
                \tString message)
            +CardIOException (
                \tString message, Throwable cause)
        }

        +class "CardRevokedException" as CardRevokedException extends CardTransactionException {
            +CardRevokedException (
                \tString message)
        }

        +class "DesynchronizedExchangesException" as DesynchronizedExchangesException extends CardTransactionException {
            +DesynchronizedExchangesException (
                \tString message)
        }
        note bottom of DesynchronizedExchangesException: R-APDU number != C-APDU number

        +class "InconsistencyDataException" as InconsistencyDataException extends CardTransactionException {
            +InconsistencyDataException (
                \tString message)
        }
        note bottom of InconsistencyDataException: Data read in session != Data read outside session

        +class "SamAnomalyException" as SamAnomalyException extends CardTransactionException {
            +SamAnomalyException (
                \tString message, Throwable cause)
        }
        note bottom of SamAnomalyException: Unexpected SAM behaviour

        +class "SamIOException" as SamIOException extends CardTransactionException {
            +SamIOException (
                \tString message)
            +SamIOException (
                \tString message, Throwable cause)
        }

        +class "SamRevokedException" as SamRevokedException extends CardTransactionException {
            +SamRevokedException (
                \tString message)
        }

        +class "SessionAuthenticationException" as SessionAuthenticationException extends CardTransactionException {
            +SessionAuthenticationException (
                \tString message)
            +SessionAuthenticationException (
                \tString message, Throwable cause)
        }
        note bottom of SessionAuthenticationException: R-APDU of DigestAuthenticate eq 6985

        +class "SvAuthenticationException" as SvAuthenticationException extends CardTransactionException {
            +SvAuthenticationException (
                \tString message)
            +SvAuthenticationException (
                \tString message, Throwable cause)
        }
        note bottom of SvAuthenticationException: R-APDU of SvCheck eq 6985

        +class "UnauthorizedKeyException" as UnauthorizedKeyException extends CardTransactionException {
            +UnauthorizedKeyException (
                \tString message)
        }

    }
}





package api #F8F9F9 {}
package transaction #F2F3F4 {}


@enduml

PlantUML version 1.2021.7(Sun May 23 14:40:07 CEST 2021)
(GPL source distribution)
Java Runtime: OpenJDK Runtime Environment
JVM: OpenJDK 64-Bit Server VM
Default Encoding: Cp1252
Language: fr
Country: FR
--></g></svg>